<svg width="18" height="18" viewBox="0 0 18 18" fill="none" xmlns="http://www.w3.org/2000/svg">
<path d="M6.10714 0.84375C6.10714 0.376172 5.67723 0 5.14286 0C4.60848 0 4.17857 0.376172 4.17857 0.84375V2.25H2.57143C1.15313 2.25 0 3.25898 0 4.5V5.0625V6.75V15.75C0 16.991 1.15313 18 2.57143 18H15.4286C16.8469 18 18 16.991 18 15.75V6.75V5.0625V4.5C18 3.25898 16.8469 2.25 15.4286 2.25H13.8214V0.84375C13.8214 0.376172 13.3915 0 12.8571 0C12.3228 0 11.8929 0.376172 11.8929 0.84375V2.25H6.10714V0.84375ZM1.92857 6.75H16.0714V15.75C16.0714 16.0594 15.7821 16.3125 15.4286 16.3125H2.57143C2.21786 16.3125 1.92857 16.0594 1.92857 15.75V6.75Z" fill="white"/>
</svg>
