<svg width="20" height="20" viewBox="0 0 20 20" fill="none" xmlns="http://www.w3.org/2000/svg">
<path d="M10.0015 0C4.47698 0 0 4.47698 0 10.0015C0 12.6913 1.06566 15.1306 2.79245 16.9298L1.99849 18.7804C1.79019 19.2694 2.22491 19.7857 2.74113 19.6619L5.59094 18.9796C6.92226 19.6347 8.4166 20.003 9.99849 20.003C15.523 20.003 20 15.526 20 10.0015C20 4.47698 15.523 0 10.0015 0ZM5.16226 11.674C4.23849 11.674 3.48981 10.9253 3.48981 10.0015C3.48981 9.07774 4.23849 8.32906 5.16226 8.32906C6.08604 8.32906 6.83472 9.07774 6.83472 10.0015C6.83472 10.9253 6.08604 11.674 5.16226 11.674ZM10.0045 11.674C9.08075 11.674 8.33208 10.9253 8.33208 10.0015C8.33208 9.07774 9.08075 8.32906 10.0045 8.32906C10.9283 8.32906 11.677 9.07774 11.677 10.0015C11.677 10.9253 10.9283 11.674 10.0045 11.674ZM14.8468 11.674C13.923 11.674 13.1743 10.9253 13.1743 10.0015C13.1743 9.07774 13.923 8.32906 14.8468 8.32906C15.7706 8.32906 16.5192 9.07774 16.5192 10.0015C16.5192 10.9253 15.7706 11.674 14.8468 11.674Z" fill="#191919"/>
</svg>
