<svg width="14" height="16" viewBox="0 0 14 16" fill="none" xmlns="http://www.w3.org/2000/svg">
<path d="M4.97813 0.169539C5.22188 -0.0585857 5.6 -0.0554607 5.84375 0.172664C6.70625 0.982039 7.51563 1.85391 8.27188 2.79766C8.61563 2.34766 9.00625 1.85704 9.42813 1.45704C9.675 1.22579 10.0563 1.22579 10.3031 1.46016C11.3844 2.49141 12.3 3.85391 12.9438 5.14766C13.5781 6.42266 14 7.72579 14 8.64454C14 12.632 10.8812 16.0008 7 16.0008C3.075 16.0008 0 12.6289 0 8.64141C0 7.44141 0.55625 5.97579 1.41875 4.52579C2.29063 3.05391 3.52188 1.51954 4.97813 0.169539ZM7.05312 13.0008C7.84375 13.0008 8.54375 12.782 9.20312 12.3445C10.5187 11.4258 10.8719 9.58829 10.0813 8.14454C9.94063 7.86329 9.58125 7.84454 9.37813 8.08204L8.59062 8.99766C8.38437 9.23516 8.0125 9.22891 7.81875 8.98204C7.30312 8.32579 6.38125 7.15391 5.85625 6.48829C5.65937 6.23829 5.28437 6.23516 5.08437 6.48516C4.02812 7.81329 3.49688 8.65079 3.49688 9.59141C3.5 11.732 5.08125 13.0008 7.05312 13.0008Z" fill="#191919"/>
</svg>
