<svg width="20" height="17" viewBox="0 0 20 17" fill="none" xmlns="http://www.w3.org/2000/svg">
<g clip-path="url(#clip0_7937_57454)">
<path d="M18.8193 7.1737C18.1195 7.10923 13.489 6.54931 13.489 6.54931C13.489 6.54931 12.2181 6.47126 12.9571 5.37858C14.278 3.42735 14.1888 2.30073 14.1888 1.47951C14.1888 0.658303 13.4498 -0.00341797 12.5894 -0.00341797C11.729 -0.00341797 11.604 1.29288 11.5219 1.59489C11.4505 1.86976 10.8436 3.09479 10.3723 3.54272C9.90104 3.99066 5.61328 8.68718 5.61328 8.68718V15.6641C5.61328 15.6641 11.9289 16.8348 13.1999 16.9129C14.4708 16.9909 15.4562 16.1731 16.0703 15.2772C16.6843 14.3814 19.0228 9.82059 19.0228 9.82059C20.1724 9.47106 20.5401 7.32641 18.8193 7.17031V7.1737Z" fill="#191919"/>
<path d="M3.34166 8.67358H0V15.6505H3.34166V8.67358Z" fill="#191919"/>
</g>
<defs>
<clipPath id="clip0_7937_57454">
<rect width="20" height="16.9231" fill="white"/>
</clipPath>
</defs>
</svg>
