<svg width="18" height="16" viewBox="0 0 18 16" fill="none" xmlns="http://www.w3.org/2000/svg">
  <path
    d="M7.93828 14.9547L7.85039 14.8738L1.69102 9.15393C0.611719 8.15197 0 6.74572 0 5.27268V5.15666C0 2.68166 1.75781 0.558223 4.19062 0.0941602C5.57578 -0.173027 6.99258 0.146895 8.12109 0.941426C8.4375 1.16643 8.73281 1.42658 9 1.72541C9.14766 1.55666 9.30586 1.40197 9.47461 1.25783C9.60469 1.14533 9.73828 1.03986 9.87891 0.941426C11.0074 0.146895 12.4242 -0.173027 13.8094 0.0906446C16.2422 0.554707 18 2.68166 18 5.15666V5.27268C18 6.74572 17.3883 8.15197 16.309 9.15393L10.1496 14.8738L10.0617 14.9547C9.77344 15.2219 9.39375 15.3731 9 15.3731C8.60625 15.3731 8.22656 15.2254 7.93828 14.9547Z"
    fill="#787878"
  />
</svg>
