<svg width="18" height="16" viewBox="0 0 18 16" fill="none" xmlns="http://www.w3.org/2000/svg">
<path d="M7.93828 14.9547L7.85039 14.8738L1.69102 9.15393C0.611719 8.15197 0 6.74572 0 5.27268V5.15666C0 2.68166 1.75781 0.558223 4.19062 0.0941602C5.57578 -0.173027 6.99258 0.146895 8.12109 0.941426C8.4375 1.16643 8.73281 1.42658 9 1.72541C9.14766 1.55666 9.30586 1.40197 9.47461 1.25783C9.60469 1.14533 9.73828 1.03986 9.87891 0.941426C11.0074 0.146895 12.4242 -0.173027 13.8094 0.0906446C16.2422 0.554707 18 2.68166 18 5.15666V5.27268C18 6.74572 17.3883 8.15197 16.309 9.15393L10.1496 14.8738L10.0617 14.9547C9.77344 15.2219 9.39375 15.3731 9 15.3731C8.60625 15.3731 8.22656 15.2254 7.93828 14.9547ZM8.40586 3.59221C8.3918 3.58166 8.38125 3.5676 8.3707 3.55354L7.74492 2.85041L7.74141 2.84689C6.9293 1.93635 5.70234 1.5215 4.50703 1.75002C2.86875 2.06291 1.6875 3.49025 1.6875 5.15666V5.15666C1.6875 6.27463 2.10586 7.23439 2.84063 7.91643L9 13.6363L15.1594 7.91643C15.8941 7.23439 16.3125 6.27463 16.3125 5.27268V5.15666C16.3125 3.49377 15.1312 2.06291 13.4965 1.75002C12.3012 1.5215 11.0707 1.93986 10.2621 2.84689L10.2586 2.85041L10.2551 2.85393L9.6293 3.55705C9.61875 3.57111 9.60469 3.58166 9.59414 3.59572C9.43594 3.75393 9.22148 3.84182 9 3.84182C8.77852 3.84182 8.56406 3.75393 8.40586 3.59572V3.59221Z" fill="#E53E3E"/>
</svg>
