<svg width="20" height="18" viewBox="0 0 20 18" fill="none" xmlns="http://www.w3.org/2000/svg">
<path d="M0 2.5C0 1.12109 1.12109 0 2.5 0H17.5C18.8789 0 20 1.12109 20 2.5V15C20 16.3789 18.8789 17.5 17.5 17.5H2.5C1.12109 17.5 0 16.3789 0 15V2.5ZM12.6484 6.66016C12.4727 6.40234 12.1836 6.25 11.875 6.25C11.5664 6.25 11.2734 6.40234 11.1016 6.66016L7.70312 11.6445L6.66797 10.3516C6.48828 10.1289 6.21875 10 5.9375 10C5.65625 10 5.38281 10.1289 5.20703 10.3516L2.70703 13.4766C2.48047 13.7578 2.4375 14.1445 2.59375 14.4688C2.75 14.793 3.07812 15 3.4375 15H7.1875H8.4375H16.5625C16.9102 15 17.2305 14.8086 17.3906 14.5C17.5508 14.1914 17.5312 13.8203 17.3359 13.5352L12.6484 6.66016ZM4.375 6.25C4.87228 6.25 5.3492 6.05246 5.70083 5.70083C6.05246 5.3492 6.25 4.87228 6.25 4.375C6.25 3.87772 6.05246 3.40081 5.70083 3.04917C5.3492 2.69754 4.87228 2.5 4.375 2.5C3.87772 2.5 3.40081 2.69754 3.04917 3.04917C2.69754 3.40081 2.5 3.87772 2.5 4.375C2.5 4.87228 2.69754 5.3492 3.04917 5.70083C3.40081 6.05246 3.87772 6.25 4.375 6.25Z" fill="#787878"/>
</svg>
