<svg width="19" height="23" viewBox="0 0 19 23" fill="none" xmlns="http://www.w3.org/2000/svg">
<path d="M18.5088 1.21191L15.7168 4.875C17.1081 5.80966 17.9999 7.39421 18 9.15625V9.27246C18 10.7455 17.3879 12.1523 16.3086 13.1543L10.1494 18.874L10.0615 18.9551C9.77328 19.2221 9.39362 19.373 9 19.373C8.60638 19.373 8.22672 19.2256 7.93848 18.9551L7.85059 18.874L6.21094 17.3516L2.50879 22.2119L0.917969 21L4.73828 15.9844L1.69141 13.1543C0.612109 12.1523 0 10.7455 0 9.27246V9.15625C0.000194123 6.68146 1.75781 4.55783 4.19043 4.09375C5.57558 3.82656 6.99258 4.14688 8.12109 4.94141C8.4375 5.16641 8.73281 5.42676 9 5.72559C9.14766 5.55684 9.30586 5.40195 9.47461 5.25781C9.60468 5.14532 9.73828 5.03984 9.87891 4.94141C11.0053 4.14835 12.419 3.82784 13.8018 4.08887L16.918 0L18.5088 1.21191ZM7.23926 16.002L9 17.6367L15.1592 11.916C15.8939 11.234 16.3125 10.2744 16.3125 9.27246V9.15625C16.3124 7.9361 15.675 6.84286 14.6904 6.22266L7.23926 16.002ZM7.74121 6.84668C6.9291 5.93628 5.70205 5.5215 4.50684 5.75C2.86879 6.06294 1.68769 7.49008 1.6875 9.15625V9.27246C1.6875 10.2744 2.10612 11.234 2.84082 11.916L5.76758 14.6338L12.5742 5.69922C11.6956 5.76904 10.8622 6.17313 10.2617 6.84668L10.2588 6.85059L10.2549 6.85352L9.62891 7.55664C9.61836 7.5707 9.6043 7.58164 9.59375 7.5957C9.43556 7.75379 9.2214 7.8418 9 7.8418C8.7786 7.8418 8.56444 7.75379 8.40625 7.5957V7.5918C8.39229 7.58132 8.38157 7.56767 8.37109 7.55371L7.74512 6.85059L7.74121 6.84668Z" fill="#191919"/>
</svg>
