<svg width="22" height="22" viewBox="0 0 22 22" fill="none" xmlns="http://www.w3.org/2000/svg">
<g clip-path="url(#clip0_4030_4011)">
<path d="M11.0258 22.0077C10.2543 22.0077 9.47723 21.9261 8.70495 21.7614C5.83175 21.147 3.36955 19.4512 1.77206 16.9851C0.174486 14.5193 -0.367454 11.5789 0.246469 8.7057C0.860392 5.8325 2.55664 3.37039 5.02278 1.77281C7.48856 0.174504 10.429 -0.36826 13.3022 0.247313C16.1754 0.861237 18.6376 2.55748 20.2351 5.02326C23.5328 10.1135 22.0745 16.9378 16.9842 20.2359C15.1814 21.4041 13.1244 22.0077 11.0258 22.0077ZM10.9864 2.44607C9.3539 2.44607 7.7543 2.91556 6.35214 3.82439C4.43389 5.067 3.1149 6.98204 2.63742 9.21664C2.15995 11.4513 2.5813 13.7383 3.82355 15.6562C5.06616 17.5741 6.98119 18.8931 9.2158 19.3705C11.4532 19.8492 13.7378 19.4267 15.6553 18.1844C19.614 15.6192 20.7484 10.3113 18.1836 6.35225C16.941 4.43483 15.0259 3.11538 12.7913 2.6379C12.1905 2.5098 11.5864 2.44607 10.9864 2.44607Z" fill="#191919"/>
<path d="M13.7549 16.2688C13.4421 16.2688 13.1294 16.1495 12.8906 15.9108C11.8505 14.8706 10.1579 14.8706 9.11779 15.9108C8.64031 16.3882 7.86683 16.3882 7.38936 15.9108C6.91188 15.4337 6.91188 14.6594 7.38936 14.1823C9.3828 12.1889 12.6256 12.1889 14.6191 14.1823C15.0965 14.6594 15.0965 15.4337 14.6191 15.9108C14.3804 16.1495 14.0677 16.2688 13.7549 16.2688Z" fill="#191919"/>
<path d="M7.96844 9.78185C8.64352 9.78185 9.19078 9.23459 9.19078 8.5595C9.19078 7.88442 8.64352 7.33716 7.96844 7.33716C7.29336 7.33716 6.74609 7.88442 6.74609 8.5595C6.74609 9.23459 7.29336 9.78185 7.96844 9.78185Z" fill="#191919"/>
<path d="M14.0348 9.78185C14.7099 9.78185 15.2572 9.23459 15.2572 8.5595C15.2572 7.88442 14.7099 7.33716 14.0348 7.33716C13.3598 7.33716 12.8125 7.88442 12.8125 8.5595C12.8125 9.23459 13.3598 9.78185 14.0348 9.78185Z" fill="#191919"/>
</g>
<defs>
<clipPath id="clip0_4030_4011">
<rect width="22" height="22.0077" fill="white"/>
</clipPath>
</defs>
</svg>
