<svg width="9" height="10" viewBox="0 0 9 10" fill="none" xmlns="http://www.w3.org/2000/svg">
<path fill-rule="evenodd" clip-rule="evenodd" d="M3.09782 0.00157918C3.43447 0.0256256 3.68788 0.318028 3.66384 0.654677L3.05273 9.21023C3.02868 9.54688 2.73628 9.8003 2.39963 9.77625C2.06298 9.7522 1.80956 9.4598 1.83361 9.12315L2.44472 0.567597C2.46877 0.230948 2.76117 -0.0224673 3.09782 0.00157918Z" fill="#787878"/>
<path fill-rule="evenodd" clip-rule="evenodd" d="M6.15337 0.00157918C6.49002 0.0256256 6.74344 0.318028 6.71939 0.654677L6.10828 9.21023C6.08424 9.54688 5.79183 9.8003 5.45518 9.77625C5.11853 9.7522 4.86512 9.4598 4.88917 9.12315L5.50028 0.567597C5.52432 0.230948 5.81673 -0.0224673 6.15337 0.00157918Z" fill="#787878"/>
<path fill-rule="evenodd" clip-rule="evenodd" d="M0.564103 3.05545C0.564103 2.71794 0.837706 2.44434 1.17521 2.44434H7.94444C8.28195 2.44434 8.55556 2.71794 8.55556 3.05545C8.55556 3.39295 8.28195 3.66656 7.94444 3.66656H1.17521C0.837706 3.66656 0.564103 3.39295 0.564103 3.05545Z" fill="#787878"/>
<path fill-rule="evenodd" clip-rule="evenodd" d="M0 6.111C0 5.7735 0.273604 5.49989 0.611111 5.49989H7.38034C7.71785 5.49989 7.99145 5.7735 7.99145 6.111C7.99145 6.44851 7.71785 6.72211 7.38034 6.72211H0.611111C0.273604 6.72211 0 6.44851 0 6.111Z" fill="#787878"/>
</svg>
