<svg width="18" height="16" viewBox="0 0 18 16" fill="none" xmlns="http://www.w3.org/2000/svg">
  <path d="M4.5 3.2L2.8 7.6H3.9L1.8 10.4H3.4L2.5 12.8H6.5L5.6 10.4H7.2L5.1 7.6H6.2L4.5 3.2Z" fill="#191919"/>
  <rect x="4" y="12.8" width="1.2" height="1.6" rx="0.2" fill="#191919"/>
  <path d="M9 0.5L5.8 6.8H7.4L4.8 10.5H6.8L5.5 14H12.5L11.2 10.5H13.2L10.6 6.8H12.2L9 0.5Z" fill="#191919"/>
  <rect x="8.2" y="14" width="1.6" height="1.6" rx="0.2" fill="#191919"/>
  <path d="M13.5 3.2L11.8 7.6H12.9L10.8 10.4H12.4L11.5 12.8H15.5L14.6 10.4H16.2L14.1 7.6H15.2L13.5 3.2Z" fill="#191919"/>
  <rect x="13" y="12.8" width="1.2" height="1.6" rx="0.2" fill="#191919"/>
</svg>
