<svg width="11" height="10" viewBox="0 0 11 10" fill="none" xmlns="http://www.w3.org/2000/svg">
<path d="M3.20332 0.704688L2.97988 1.375H1.375C0.616602 1.375 0 1.9916 0 2.75V8.25C0 9.0084 0.616602 9.625 1.375 9.625H9.625C10.3834 9.625 11 9.0084 11 8.25V2.75C11 1.9916 10.3834 1.375 9.625 1.375H8.02012L7.79668 0.704688C7.65703 0.283594 7.26387 0 6.81914 0H4.18086C3.73613 0 3.34297 0.283594 3.20332 0.704688ZM5.5 3.4375C6.04701 3.4375 6.57161 3.6548 6.95841 4.04159C7.3452 4.42839 7.5625 4.95299 7.5625 5.5C7.5625 6.04701 7.3452 6.57161 6.95841 6.95841C6.57161 7.3452 6.04701 7.5625 5.5 7.5625C4.95299 7.5625 4.42839 7.3452 4.04159 6.95841C3.6548 6.57161 3.4375 6.04701 3.4375 5.5C3.4375 4.95299 3.6548 4.42839 4.04159 4.04159C4.42839 3.6548 4.95299 3.4375 5.5 3.4375Z" fill="currentColor"/>
</svg>
