<svg width="15" height="15" viewBox="0 0 15 15" fill="none" xmlns="http://www.w3.org/2000/svg">
<path fill-rule="evenodd" clip-rule="evenodd" d="M0.376577 0.376577C0.87868 -0.125526 1.69275 -0.125526 2.19485 0.376577L14.1948 12.3766C14.697 12.8787 14.697 13.6927 14.1948 14.1948C13.6927 14.697 12.8787 14.697 12.3766 14.1948L0.376577 2.19485C-0.125526 1.69275 -0.125526 0.87868 0.376577 0.376577Z" fill="#0779F1"/>
<path fill-rule="evenodd" clip-rule="evenodd" d="M14.1937 0.376577C14.6958 0.87868 14.6958 1.69275 14.1937 2.19485L2.19374 14.1948C1.69163 14.697 0.877565 14.697 0.375462 14.1948C-0.12664 13.6927 -0.12664 12.8787 0.375462 12.3766L12.3755 0.376577C12.8776 -0.125526 13.6916 -0.125526 14.1937 0.376577Z" fill="#0779F1"/>
</svg>
