<svg width="24" height="19" viewBox="0 0 24 19" fill="none" xmlns="http://www.w3.org/2000/svg">
<path d="M11.5 2C11.0473 2.6026 10.6847 3.27596 10.4287 4H4C2.89543 4 2 4.89543 2 6V15L2.01074 15.2041C2.1062 16.1457 2.85435 16.8938 3.7959 16.9893L4 17H18L18.2041 16.9893C19.2128 16.887 20 16.0357 20 15V13.5713C20.7242 13.3152 21.3973 12.9519 22 12.499V15C22 17.2091 20.2091 19 18 19H4C1.79086 19 0 17.2091 0 15V6C0 3.79086 1.79086 2 4 2H11.5ZM17.5 0C21.0899 0 24 2.91015 24 6.5C24 10.0899 21.0899 13 17.5 13C13.9101 13 11 10.0899 11 6.5C11 2.91015 13.9101 0 17.5 0ZM17.5 2.05273C15.0438 2.05273 13.0527 4.04379 13.0527 6.5C13.0527 8.95621 15.0438 10.9473 17.5 10.9473C19.9562 10.9473 21.9473 8.95621 21.9473 6.5C21.9473 4.04379 19.9562 2.05273 17.5 2.05273ZM17.499 3.2627C17.8769 3.2627 18.1835 3.56943 18.1836 3.94727V5.31543H19.5518C19.9296 5.31549 20.2363 5.62216 20.2363 6C20.2363 6.37784 19.9296 6.68451 19.5518 6.68457H18.1836V8.05273C18.1835 8.43057 17.8769 8.7373 17.499 8.7373C17.1212 8.7373 16.8145 8.43057 16.8145 8.05273V6.68457H15.4463C15.0685 6.68451 14.7617 6.37784 14.7617 6C14.7617 5.62216 15.0685 5.31549 15.4463 5.31543H16.8145V3.94727C16.8145 3.56943 17.1212 3.2627 17.499 3.2627Z" fill="#191919"/>
<path d="M11.5 2C11.0473 2.6026 10.6847 3.27596 10.4287 4H4C2.89543 4 2 4.89543 2 6V15L2.01074 15.2041C2.1062 16.1457 2.85435 16.8938 3.7959 16.9893L4 17H18L18.2041 16.9893C19.2128 16.887 20 16.0357 20 15V13.5713C20.7242 13.3152 21.3973 12.9519 22 12.499V15C22 17.2091 20.2091 19 18 19H4C1.79086 19 0 17.2091 0 15V6C0 3.79086 1.79086 2 4 2H11.5ZM17.5 0C21.0899 0 24 2.91015 24 6.5C24 10.0899 21.0899 13 17.5 13C13.9101 13 11 10.0899 11 6.5C11 2.91015 13.9101 0 17.5 0ZM17.5 2.05273C15.0438 2.05273 13.0527 4.04379 13.0527 6.5C13.0527 8.95621 15.0438 10.9473 17.5 10.9473C19.9562 10.9473 21.9473 8.95621 21.9473 6.5C21.9473 4.04379 19.9562 2.05273 17.5 2.05273ZM17.499 3.2627C17.8769 3.2627 18.1835 3.56943 18.1836 3.94727V5.31543H19.5518C19.9296 5.31549 20.2363 5.62216 20.2363 6C20.2363 6.37784 19.9296 6.68451 19.5518 6.68457H18.1836V8.05273C18.1835 8.43057 17.8769 8.7373 17.499 8.7373C17.1212 8.7373 16.8145 8.43057 16.8145 8.05273V6.68457H15.4463C15.0685 6.68451 14.7617 6.37784 14.7617 6C14.7617 5.62216 15.0685 5.31549 15.4463 5.31543H16.8145V3.94727C16.8145 3.56943 17.1212 3.2627 17.499 3.2627Z" fill="black" fill-opacity="0.2"/>
<path d="M11.5 2C11.0473 2.6026 10.6847 3.27596 10.4287 4H4C2.89543 4 2 4.89543 2 6V15L2.01074 15.2041C2.1062 16.1457 2.85435 16.8938 3.7959 16.9893L4 17H18L18.2041 16.9893C19.2128 16.887 20 16.0357 20 15V13.5713C20.7242 13.3152 21.3973 12.9519 22 12.499V15C22 17.2091 20.2091 19 18 19H4C1.79086 19 0 17.2091 0 15V6C0 3.79086 1.79086 2 4 2H11.5ZM17.5 0C21.0899 0 24 2.91015 24 6.5C24 10.0899 21.0899 13 17.5 13C13.9101 13 11 10.0899 11 6.5C11 2.91015 13.9101 0 17.5 0ZM17.5 2.05273C15.0438 2.05273 13.0527 4.04379 13.0527 6.5C13.0527 8.95621 15.0438 10.9473 17.5 10.9473C19.9562 10.9473 21.9473 8.95621 21.9473 6.5C21.9473 4.04379 19.9562 2.05273 17.5 2.05273ZM17.499 3.2627C17.8769 3.2627 18.1835 3.56943 18.1836 3.94727V5.31543H19.5518C19.9296 5.31549 20.2363 5.62216 20.2363 6C20.2363 6.37784 19.9296 6.68451 19.5518 6.68457H18.1836V8.05273C18.1835 8.43057 17.8769 8.7373 17.499 8.7373C17.1212 8.7373 16.8145 8.43057 16.8145 8.05273V6.68457H15.4463C15.0685 6.68451 14.7617 6.37784 14.7617 6C14.7617 5.62216 15.0685 5.31549 15.4463 5.31543H16.8145V3.94727C16.8145 3.56943 17.1212 3.2627 17.499 3.2627Z" fill="black" fill-opacity="0.2"/>
<path d="M11.5 2C11.0473 2.6026 10.6847 3.27596 10.4287 4H4C2.89543 4 2 4.89543 2 6V15L2.01074 15.2041C2.1062 16.1457 2.85435 16.8938 3.7959 16.9893L4 17H18L18.2041 16.9893C19.2128 16.887 20 16.0357 20 15V13.5713C20.7242 13.3152 21.3973 12.9519 22 12.499V15C22 17.2091 20.2091 19 18 19H4C1.79086 19 0 17.2091 0 15V6C0 3.79086 1.79086 2 4 2H11.5ZM17.5 0C21.0899 0 24 2.91015 24 6.5C24 10.0899 21.0899 13 17.5 13C13.9101 13 11 10.0899 11 6.5C11 2.91015 13.9101 0 17.5 0ZM17.5 2.05273C15.0438 2.05273 13.0527 4.04379 13.0527 6.5C13.0527 8.95621 15.0438 10.9473 17.5 10.9473C19.9562 10.9473 21.9473 8.95621 21.9473 6.5C21.9473 4.04379 19.9562 2.05273 17.5 2.05273ZM17.499 3.2627C17.8769 3.2627 18.1835 3.56943 18.1836 3.94727V5.31543H19.5518C19.9296 5.31549 20.2363 5.62216 20.2363 6C20.2363 6.37784 19.9296 6.68451 19.5518 6.68457H18.1836V8.05273C18.1835 8.43057 17.8769 8.7373 17.499 8.7373C17.1212 8.7373 16.8145 8.43057 16.8145 8.05273V6.68457H15.4463C15.0685 6.68451 14.7617 6.37784 14.7617 6C14.7617 5.62216 15.0685 5.31549 15.4463 5.31543H16.8145V3.94727C16.8145 3.56943 17.1212 3.2627 17.499 3.2627Z" fill="black" fill-opacity="0.2"/>
</svg>
