<svg width="20" height="20" viewBox="0 0 20 20" fill="none" xmlns="http://www.w3.org/2000/svg">
<path d="M19.5102 8.20347L17.3285 8.10269C17.1292 8.0937 16.9531 7.97007 16.8774 7.78616L16.4279 6.7043C16.3522 6.51961 16.3889 6.308 16.5238 6.16077L17.9952 4.5462C18.1795 4.34354 18.1728 4.03037 17.9788 3.83595L16.1649 2.02173C15.9701 1.8277 15.657 1.8202 15.454 2.00563L13.8402 3.47707C13.6926 3.61157 13.4806 3.64903 13.2962 3.57223L12.2144 3.12347C12.0301 3.04745 11.9072 2.87136 11.8982 2.6717L11.7971 0.490754C11.7843 0.216177 11.558 0 11.2839 0H8.71708C8.44285 0 8.21586 0.216177 8.20316 0.490715L8.10273 2.67166C8.09374 2.87132 7.97085 3.04738 7.78655 3.12343L6.70469 3.57223C6.51965 3.64903 6.30761 3.61157 6.16077 3.47707L4.54624 2.00563C4.34319 1.82024 4.03002 1.82735 3.83525 2.02173L2.02212 3.83595C1.82735 4.03037 1.82063 4.34354 2.00563 4.5462L3.47707 6.16077C3.61192 6.308 3.6479 6.51961 3.57145 6.7043L3.12343 7.78616C3.04702 7.97007 2.87171 8.0937 2.6717 8.10269L0.490715 8.20347C0.216529 8.21582 0 8.44246 0 8.71704V11.2835C0 11.5577 0.216529 11.7846 0.490715 11.7971L2.6717 11.8978C2.87171 11.9068 3.04702 12.0304 3.12343 12.2143L3.57145 13.2962C3.6479 13.4809 3.61192 13.6925 3.47707 13.8397L2.00563 15.4535C1.81985 15.6573 1.82735 15.9701 2.02138 16.1645L3.83669 17.9787C4.03072 18.1732 4.34315 18.1799 4.54694 17.9952L6.16073 16.5234C6.30757 16.3889 6.52039 16.3519 6.70465 16.4283L7.78647 16.8767C7.97081 16.9531 8.09367 17.1292 8.10265 17.3288L8.20308 19.5098C8.21578 19.784 8.44278 20.0005 8.717 20.0005H11.2838C11.558 20.0005 11.7843 19.784 11.797 19.5098L11.8981 17.3288C11.9071 17.1292 12.03 16.9531 12.2143 16.8767L13.2961 16.4283C13.4804 16.3519 13.6925 16.3889 13.8401 16.5234L15.4538 17.9952C15.6569 18.1799 15.9701 18.1732 16.1648 17.9787L17.9787 16.1645C18.1727 15.9701 18.1794 15.6573 17.9951 15.4535L16.5237 13.8397C16.3888 13.6925 16.3513 13.4809 16.4278 13.2962L16.8773 12.2143C16.953 12.0304 17.129 11.9068 17.3283 11.8978L19.5101 11.7971C19.7843 11.7846 20 11.5577 20 11.2835V8.71704C20.0001 8.44246 19.7844 8.21582 19.5102 8.20347ZM10.0005 13.2666C8.19715 13.2666 6.73391 11.8042 6.73391 10.0005C6.73391 8.19636 8.19715 6.73391 10.0005 6.73391C11.8038 6.73391 13.2662 8.19636 13.2662 10.0005C13.2662 11.8041 11.8038 13.2666 10.0005 13.2666Z" fill="#191919"/>
</svg>
