<svg width="18" height="16" viewBox="0 0 18 16" fill="none" xmlns="http://www.w3.org/2000/svg">
<path d="M5 2.5C4.1 3.6 3 4.2 2.6 5.5C2.2 6.8 2.5 8 3.4 9C3.7 9.3 4 9.5 4.2 9.6V13.5H6.2V9.6C6.4 9.5 6.7 9.3 7 9C7.9 8 8.2 6.8 7.8 5.5C7.4 4.2 6.3 3.6 5.4 2.5C5.2 2.3 5.1 2.2 5 2.5Z" fill="#191919"/>
<path d="M13 2.5C12.1 3.6 11 4.2 10.6 5.5C10.2 6.8 10.5 8 11.4 9C11.7 9.3 12 9.5 12.2 9.6V13.5H14.2V9.6C14.4 9.5 14.7 9.3 15 9C15.9 8 16.2 6.8 15.8 5.5C15.4 4.2 14.3 3.6 13.4 2.5C13.2 2.3 13.1 2.2 13 2.5Z" fill="#191919"/>
<path d="M9 0.8C7.6 2.6 5.8 3.5 5 5.5C4.2 7.5 4.7 9.2 6.2 10.6C6.7 11.1 7.2 11.4 7.6 11.6V14.8H10.4V11.6C10.8 11.4 11.3 11.1 11.8 10.6C13.3 9.2 13.8 7.5 13 5.5C12.2 3.5 10.4 2.6 9 0.8Z" fill="#191919"/>
</svg>
