<svg width="10" height="10" viewBox="0 0 10 10" fill="none" xmlns="http://www.w3.org/2000/svg">
<path d="M8.9868 4.1187H5.6184V0.75C5.6184 0.3359 5.2825 0 4.8684 0C4.4543 0 4.1184 0.3359 4.1184 0.75V4.1187H0.75C0.3359 4.1187 0 4.4546 0 4.8687C0 5.2828 0.3359 5.6187 0.75 5.6187H4.1184V8.9874C4.1184 9.4015 4.4543 9.7374 4.8684 9.7374C5.2825 9.7374 5.6184 9.4015 5.6184 8.9874V5.6187H8.9868C9.4009 5.6187 9.7368 5.2828 9.7368 4.8687C9.7368 4.4546 9.4009 4.1187 8.9868 4.1187Z" fill="#787878"/>
</svg>
