<svg width="22" height="18" viewBox="0 0 22 18" fill="none" xmlns="http://www.w3.org/2000/svg">
<path d="M1.33394 0.175506C0.976443 -0.106369 0.457381 -0.0410568 0.175506 0.316443C-0.106369 0.673943 -0.0410568 1.19301 0.316443 1.47488L20.6664 17.4249C21.0239 17.7068 21.543 17.6414 21.8249 17.2839C22.1068 16.9264 22.0414 16.4074 21.6839 16.1255L18.0677 13.293C19.4289 11.8974 20.3502 10.3333 20.8143 9.22301C20.9277 8.95144 20.9277 8.64894 20.8143 8.37738C20.3021 7.15019 19.2261 5.36269 17.6174 3.87082C16.0018 2.36519 13.7777 1.10019 11.0002 1.10019C8.65582 1.10019 6.70332 2.00426 5.1805 3.19019L1.33394 0.175506ZM7.66926 5.13926C8.54582 4.33832 9.71801 3.85019 11.0002 3.85019C13.733 3.85019 15.9502 6.06738 15.9502 8.80019C15.9502 9.65613 15.7336 10.4605 15.3521 11.1618L14.0252 10.1236C14.3139 9.46019 14.3896 8.70051 14.1902 7.94769C13.8086 6.52113 12.5471 5.56207 11.1446 5.50363C10.9452 5.49676 10.8283 5.71332 10.8902 5.90582C10.9624 6.12582 11.0036 6.35957 11.0036 6.60363C11.0036 6.95426 10.9211 7.28426 10.7768 7.57644L7.67269 5.14269L7.66926 5.13926ZM12.8221 13.403C12.2583 13.6264 11.643 13.7502 11.0002 13.7502C8.26738 13.7502 6.05019 11.533 6.05019 8.80019C6.05019 8.56301 6.06738 8.33269 6.09832 8.10582L2.85676 5.55176C2.07301 6.57269 1.51269 7.59019 1.18613 8.37738C1.07269 8.64894 1.07269 8.95144 1.18613 9.22301C1.69832 10.4502 2.77426 12.2377 4.38301 13.7296C5.99863 15.2352 8.22269 16.5002 11.0002 16.5002C12.6433 16.5002 14.0905 16.0568 15.3383 15.383L12.8221 13.403Z" fill="#191919"/>
</svg>
