<svg width="21" height="17" viewBox="0 0 21 17" fill="none" xmlns="http://www.w3.org/2000/svg">
<path d="M7.77148 15.5V17H2V15.5H7.77148ZM18.543 15.5V17H12.7715V15.5H18.543ZM19.043 15V11C19.043 10.7239 18.8191 10.5 18.543 10.5H12.7715C12.4953 10.5 12.2715 10.7239 12.2715 11V15C12.2715 15.2761 12.4953 15.5 12.7715 15.5V17C11.6669 17 10.7715 16.1046 10.7715 15V11C10.7715 9.89543 11.6669 9 12.7715 9H18.543C19.6475 9 20.543 9.89543 20.543 11V15C20.543 16.1046 19.6475 17 18.543 17V15.5C18.8191 15.5 19.043 15.2761 19.043 15ZM8.27148 15V11C8.27148 10.7239 8.04763 10.5 7.77148 10.5H2C1.72386 10.5 1.5 10.7239 1.5 11V15C1.5 15.2761 1.72386 15.5 2 15.5V17L1.7959 16.9893C0.787223 16.887 0 16.0357 0 15V11C0 9.89543 0.895431 9 2 9H7.77148C8.87605 9 9.77148 9.89543 9.77148 11V15C9.77148 16.1046 8.87605 17 7.77148 17V15.5C8.04763 15.5 8.27148 15.2761 8.27148 15ZM8.27148 2C8.27148 1.72386 8.04763 1.5 7.77148 1.5H2C1.72386 1.5 1.5 1.72386 1.5 2V6C1.5 6.27614 1.72386 6.5 2 6.5H7.77148C8.04763 6.5 8.27148 6.27614 8.27148 6V2ZM9.77148 6C9.77148 7.10457 8.87605 8 7.77148 8H2C0.895431 8 0 7.10457 0 6V2C0 0.895431 0.895431 0 2 0H7.77148C8.87605 0 9.77148 0.895431 9.77148 2V6Z" fill="#191919"/>
<path d="M7.77148 15.5V17H2V15.5H7.77148ZM18.543 15.5V17H12.7715V15.5H18.543ZM19.043 15V11C19.043 10.7239 18.8191 10.5 18.543 10.5H12.7715C12.4953 10.5 12.2715 10.7239 12.2715 11V15C12.2715 15.2761 12.4953 15.5 12.7715 15.5V17C11.6669 17 10.7715 16.1046 10.7715 15V11C10.7715 9.89543 11.6669 9 12.7715 9H18.543C19.6475 9 20.543 9.89543 20.543 11V15C20.543 16.1046 19.6475 17 18.543 17V15.5C18.8191 15.5 19.043 15.2761 19.043 15ZM8.27148 15V11C8.27148 10.7239 8.04763 10.5 7.77148 10.5H2C1.72386 10.5 1.5 10.7239 1.5 11V15C1.5 15.2761 1.72386 15.5 2 15.5V17L1.7959 16.9893C0.787223 16.887 0 16.0357 0 15V11C0 9.89543 0.895431 9 2 9H7.77148C8.87605 9 9.77148 9.89543 9.77148 11V15C9.77148 16.1046 8.87605 17 7.77148 17V15.5C8.04763 15.5 8.27148 15.2761 8.27148 15ZM8.27148 2C8.27148 1.72386 8.04763 1.5 7.77148 1.5H2C1.72386 1.5 1.5 1.72386 1.5 2V6C1.5 6.27614 1.72386 6.5 2 6.5H7.77148C8.04763 6.5 8.27148 6.27614 8.27148 6V2ZM9.77148 6C9.77148 7.10457 8.87605 8 7.77148 8H2C0.895431 8 0 7.10457 0 6V2C0 0.895431 0.895431 0 2 0H7.77148C8.87605 0 9.77148 0.895431 9.77148 2V6Z" fill="black" fill-opacity="0.2"/>
<path d="M7.77148 15.5V17H2V15.5H7.77148ZM18.543 15.5V17H12.7715V15.5H18.543ZM19.043 15V11C19.043 10.7239 18.8191 10.5 18.543 10.5H12.7715C12.4953 10.5 12.2715 10.7239 12.2715 11V15C12.2715 15.2761 12.4953 15.5 12.7715 15.5V17C11.6669 17 10.7715 16.1046 10.7715 15V11C10.7715 9.89543 11.6669 9 12.7715 9H18.543C19.6475 9 20.543 9.89543 20.543 11V15C20.543 16.1046 19.6475 17 18.543 17V15.5C18.8191 15.5 19.043 15.2761 19.043 15ZM8.27148 15V11C8.27148 10.7239 8.04763 10.5 7.77148 10.5H2C1.72386 10.5 1.5 10.7239 1.5 11V15C1.5 15.2761 1.72386 15.5 2 15.5V17L1.7959 16.9893C0.787223 16.887 0 16.0357 0 15V11C0 9.89543 0.895431 9 2 9H7.77148C8.87605 9 9.77148 9.89543 9.77148 11V15C9.77148 16.1046 8.87605 17 7.77148 17V15.5C8.04763 15.5 8.27148 15.2761 8.27148 15ZM8.27148 2C8.27148 1.72386 8.04763 1.5 7.77148 1.5H2C1.72386 1.5 1.5 1.72386 1.5 2V6C1.5 6.27614 1.72386 6.5 2 6.5H7.77148C8.04763 6.5 8.27148 6.27614 8.27148 6V2ZM9.77148 6C9.77148 7.10457 8.87605 8 7.77148 8H2C0.895431 8 0 7.10457 0 6V2C0 0.895431 0.895431 0 2 0H7.77148C8.87605 0 9.77148 0.895431 9.77148 2V6Z" fill="black" fill-opacity="0.2"/>
<path d="M7.77148 15.5V17H2V15.5H7.77148ZM18.543 15.5V17H12.7715V15.5H18.543ZM19.043 15V11C19.043 10.7239 18.8191 10.5 18.543 10.5H12.7715C12.4953 10.5 12.2715 10.7239 12.2715 11V15C12.2715 15.2761 12.4953 15.5 12.7715 15.5V17C11.6669 17 10.7715 16.1046 10.7715 15V11C10.7715 9.89543 11.6669 9 12.7715 9H18.543C19.6475 9 20.543 9.89543 20.543 11V15C20.543 16.1046 19.6475 17 18.543 17V15.5C18.8191 15.5 19.043 15.2761 19.043 15ZM8.27148 15V11C8.27148 10.7239 8.04763 10.5 7.77148 10.5H2C1.72386 10.5 1.5 10.7239 1.5 11V15C1.5 15.2761 1.72386 15.5 2 15.5V17L1.7959 16.9893C0.787223 16.887 0 16.0357 0 15V11C0 9.89543 0.895431 9 2 9H7.77148C8.87605 9 9.77148 9.89543 9.77148 11V15C9.77148 16.1046 8.87605 17 7.77148 17V15.5C8.04763 15.5 8.27148 15.2761 8.27148 15ZM8.27148 2C8.27148 1.72386 8.04763 1.5 7.77148 1.5H2C1.72386 1.5 1.5 1.72386 1.5 2V6C1.5 6.27614 1.72386 6.5 2 6.5H7.77148C8.04763 6.5 8.27148 6.27614 8.27148 6V2ZM9.77148 6C9.77148 7.10457 8.87605 8 7.77148 8H2C0.895431 8 0 7.10457 0 6V2C0 0.895431 0.895431 0 2 0H7.77148C8.87605 0 9.77148 0.895431 9.77148 2V6Z" fill="black" fill-opacity="0.2"/>
<rect x="12" width="8" height="8" rx="4" fill="#191919"/>
<rect x="12" width="8" height="8" rx="4" fill="black" fill-opacity="0.2"/>
<rect x="12" width="8" height="8" rx="4" fill="black" fill-opacity="0.2"/>
<rect x="12" width="8" height="8" rx="4" fill="black" fill-opacity="0.2"/>
<path d="M16.0029 2C16.2789 2.00023 16.5029 2.224 16.5029 2.5V3.5H17.5C17.7761 3.5 17.9999 3.7239 18 4C18 4.27614 17.7761 4.5 17.5 4.5H16.5029V5.5C16.5029 5.776 16.2789 5.99977 16.0029 6C15.7268 6 15.5029 5.77614 15.5029 5.5V4.5H14.5C14.224 4.49988 14 4.27607 14 4C14.0001 3.72397 14.224 3.50012 14.5 3.5H15.5029V2.5C15.5029 2.22386 15.7268 2 16.0029 2Z" fill="white"/>
</svg>
