<svg width="9" height="9" viewBox="0 0 9 9" fill="none" xmlns="http://www.w3.org/2000/svg">
<g clip-path="url(#clip0_7939_43862)">
<path d="M8.36056 7.41481L6.93574 5.97998C7.35676 5.36505 7.60272 4.62089 7.60272 3.82104C7.60272 1.71557 5.89649 0 3.80025 0C1.70402 0 0 1.71557 0 3.82104C0 5.9265 1.70624 7.64207 3.80025 7.64207C4.62013 7.64207 5.37797 7.37694 6.00063 6.93134L7.4188 8.35949C7.54954 8.49094 7.71795 8.55556 7.88857 8.55556C8.05919 8.55556 8.22982 8.49094 8.35834 8.35949C8.6176 8.09881 8.6176 7.67549 8.35834 7.41481H8.36056ZM1.32953 3.82104C1.32953 2.45081 2.43748 1.33681 3.80025 1.33681C5.16303 1.33681 6.27097 2.45081 6.27097 3.82104C6.27097 5.19126 5.16303 6.30527 3.80025 6.30527C2.43748 6.30527 1.32953 5.19126 1.32953 3.82104Z" fill="#787878"/>
</g>
<defs>
<clipPath id="clip0_7939_43862">
<rect width="8.55556" height="8.55556" fill="white"/>
</clipPath>
</defs>
</svg>
