<svg width="18" height="9" viewBox="0 0 18 9" fill="none" xmlns="http://www.w3.org/2000/svg">
<path d="M12.0008 1.76448C11.4477 1.76448 11.0009 1.37023 11.0009 0.882238C11.0009 0.39425 11.4477 0 12.0008 0H17.0001C17.5532 0 18 0.39425 18 0.882238V5.29343C18 5.78142 17.5532 6.17567 17.0001 6.17567C16.4471 6.17567 16.0003 5.78142 16.0003 5.29343V3.01339L10.7072 7.68098C10.3166 8.02561 9.68233 8.02561 9.29176 7.68098L6.00156 4.77787L1.70837 8.56322C1.3178 8.90785 0.683505 8.90785 0.292931 8.56322C-0.0976435 8.2186 -0.0976435 7.65893 0.292931 7.3143L5.29228 2.90311C5.68285 2.55849 6.31715 2.55849 6.70772 2.90311L10.001 5.80899L14.5848 1.76448H12.0008Z" fill="#333333"/>
</svg>
