<svg width="19" height="17" viewBox="0 0 19 17" fill="none" xmlns="http://www.w3.org/2000/svg">
<rect x="0.75" y="0.75" width="7.5" height="6.5" rx="1.25" fill="#191919"/>
<rect x="0.75" y="0.75" width="7.5" height="6.5" rx="1.25" fill="black" fill-opacity="0.2"/>
<rect x="0.75" y="0.75" width="7.5" height="6.5" rx="1.25" fill="black" fill-opacity="0.2"/>
<rect x="0.75" y="0.75" width="7.5" height="6.5" rx="1.25" fill="black" fill-opacity="0.2"/>
<rect x="0.75" y="0.75" width="7.5" height="6.5" rx="1.25" stroke="#191919" stroke-width="1.5"/>
<rect x="0.75" y="0.75" width="7.5" height="6.5" rx="1.25" stroke="black" stroke-opacity="0.2" stroke-width="1.5"/>
<rect x="0.75" y="0.75" width="7.5" height="6.5" rx="1.25" stroke="black" stroke-opacity="0.2" stroke-width="1.5"/>
<rect x="0.75" y="0.75" width="7.5" height="6.5" rx="1.25" stroke="black" stroke-opacity="0.2" stroke-width="1.5"/>
<rect x="10.75" y="0.75" width="7.5" height="6.5" rx="1.25" fill="#191919"/>
<rect x="10.75" y="0.75" width="7.5" height="6.5" rx="1.25" fill="black" fill-opacity="0.2"/>
<rect x="10.75" y="0.75" width="7.5" height="6.5" rx="1.25" fill="black" fill-opacity="0.2"/>
<rect x="10.75" y="0.75" width="7.5" height="6.5" rx="1.25" fill="black" fill-opacity="0.2"/>
<rect x="10.75" y="0.75" width="7.5" height="6.5" rx="1.25" stroke="#191919" stroke-width="1.5"/>
<rect x="10.75" y="0.75" width="7.5" height="6.5" rx="1.25" stroke="black" stroke-opacity="0.2" stroke-width="1.5"/>
<rect x="10.75" y="0.75" width="7.5" height="6.5" rx="1.25" stroke="black" stroke-opacity="0.2" stroke-width="1.5"/>
<rect x="10.75" y="0.75" width="7.5" height="6.5" rx="1.25" stroke="black" stroke-opacity="0.2" stroke-width="1.5"/>
<rect x="0.75" y="9.75" width="7.5" height="6.5" rx="1.25" fill="#191919"/>
<rect x="0.75" y="9.75" width="7.5" height="6.5" rx="1.25" fill="black" fill-opacity="0.2"/>
<rect x="0.75" y="9.75" width="7.5" height="6.5" rx="1.25" fill="black" fill-opacity="0.2"/>
<rect x="0.75" y="9.75" width="7.5" height="6.5" rx="1.25" fill="black" fill-opacity="0.2"/>
<rect x="0.75" y="9.75" width="7.5" height="6.5" rx="1.25" stroke="#191919" stroke-width="1.5"/>
<rect x="0.75" y="9.75" width="7.5" height="6.5" rx="1.25" stroke="black" stroke-opacity="0.2" stroke-width="1.5"/>
<rect x="0.75" y="9.75" width="7.5" height="6.5" rx="1.25" stroke="black" stroke-opacity="0.2" stroke-width="1.5"/>
<rect x="0.75" y="9.75" width="7.5" height="6.5" rx="1.25" stroke="black" stroke-opacity="0.2" stroke-width="1.5"/>
<rect x="10.75" y="9.75" width="7.5" height="6.5" rx="1.25" fill="#191919"/>
<rect x="10.75" y="9.75" width="7.5" height="6.5" rx="1.25" fill="black" fill-opacity="0.2"/>
<rect x="10.75" y="9.75" width="7.5" height="6.5" rx="1.25" fill="black" fill-opacity="0.2"/>
<rect x="10.75" y="9.75" width="7.5" height="6.5" rx="1.25" fill="black" fill-opacity="0.2"/>
<rect x="10.75" y="9.75" width="7.5" height="6.5" rx="1.25" stroke="#191919" stroke-width="1.5"/>
<rect x="10.75" y="9.75" width="7.5" height="6.5" rx="1.25" stroke="black" stroke-opacity="0.2" stroke-width="1.5"/>
<rect x="10.75" y="9.75" width="7.5" height="6.5" rx="1.25" stroke="black" stroke-opacity="0.2" stroke-width="1.5"/>
<rect x="10.75" y="9.75" width="7.5" height="6.5" rx="1.25" stroke="black" stroke-opacity="0.2" stroke-width="1.5"/>
</svg>
