<svg width="22" height="22" viewBox="0 0 22 22" fill="none" xmlns="http://www.w3.org/2000/svg">
<g clip-path="url(#clip0_7935_57036)">
<path d="M21.6154 6.78632L11.4625 0.137625C11.1808 -0.045875 10.8172 -0.045875 10.5355 0.137625L0.3826 6.78632C0.1438 6.94332 0 7.20932 0 7.49442V21.1513C0 21.619 0.3788 21.9974 0.8461 21.9974H7.6147C8.0819 21.9974 8.4608 21.619 8.4608 21.1513V16.0749C8.4608 15.608 8.8404 15.2288 9.3069 15.2288H12.6912C13.1576 15.2288 13.5373 15.608 13.5373 16.0749V21.1513C13.5373 21.619 13.9161 21.9974 14.3834 21.9974H21.152C21.6192 21.9974 21.9981 21.619 21.9981 21.1513V7.49452C21.9981 7.20942 21.8542 6.94332 21.6154 6.78632Z" fill="currentColor"/>
</g>
<defs>
<clipPath id="clip0_7935_57036">
<rect width="21.9979" height="21.9975" fill="white"/>
</clipPath>
</defs>
</svg>
