<svg width="22" height="22" viewBox="0 0 22 22" fill="none" xmlns="http://www.w3.org/2000/svg">
<g clip-path="url(#clip0_7935_56755)">
<path d="M21.1538 21.9995H14.3846C13.9173 21.9995 13.5384 21.6211 13.5384 21.1534V16.0765C13.5384 15.6096 13.1587 15.2303 12.6922 15.2303H9.3076C8.8411 15.2303 8.4614 15.6096 8.4614 16.0765V21.1534C8.4614 21.6211 8.0825 21.9995 7.6152 21.9995H0.8462C0.3789 21.9995 0 21.6211 0 21.1534V7.49515C0 7.21005 0.1438 6.94395 0.3826 6.78695L10.5364 0.13755C10.8182 -0.04585 11.1818 -0.04585 11.4635 0.13755L21.6173 6.78695C21.8561 6.94395 21.9999 7.21005 21.9999 7.49515V21.1535C21.9999 21.6212 21.6211 21.9995 21.1538 21.9995ZM15.2308 20.3073H20.3077V7.95205L11 1.85715L1.6923 7.95205V20.3073H6.7692V16.0765C6.7692 14.6767 7.9079 13.538 9.3077 13.538H12.6923C14.0921 13.538 15.2308 14.6767 15.2308 16.0765V20.3073Z" fill="currentColor"/>
</g>
<defs>
<clipPath id="clip0_7935_56755">
<rect width="22" height="21.9996" fill="white"/>
</clipPath>
</defs>
</svg>
