<svg width="19" height="22" viewBox="0 0 19 22" fill="none" xmlns="http://www.w3.org/2000/svg">
<g clip-path="url(#clip0_7935_56759)">
<path d="M9.45466 9.582C12.0964 9.582 14.2457 7.4327 14.2457 4.791C14.2457 2.1493 12.0964 0 9.45466 0C6.81296 0 4.66406 2.1492 4.66406 4.791C4.66406 7.4328 6.81296 9.582 9.45466 9.582ZM9.45466 1.6923C11.1635 1.6923 12.5534 3.0821 12.5534 4.791C12.5534 6.4999 11.1635 7.8897 9.45466 7.8897C7.74586 7.8897 6.35636 6.4998 6.35636 4.791C6.35636 3.0822 7.74626 1.6923 9.45466 1.6923Z" fill="currentColor"/>
<path d="M10.8872 10.9844H8.0182C3.597 10.9844 0 14.5813 0 19.0022C0 20.6548 1.3448 22.0001 2.9979 22.0001H15.9075C17.5606 22.0001 18.9054 20.6548 18.9054 19.0022C18.9054 14.5814 15.3084 10.9844 10.8872 10.9844ZM15.9075 20.3078H2.9979C2.2782 20.3078 1.6923 19.7219 1.6923 19.0022C1.6923 15.5143 4.5299 12.6767 8.0182 12.6767H10.8872C14.3755 12.6767 17.2131 15.5143 17.2131 19.0022C17.2131 19.7219 16.6272 20.3078 15.9075 20.3078Z" fill="currentColor"/>
</g>
<defs>
<clipPath id="clip0_7935_56759">
<rect width="18.9055" height="22" fill="white"/>
</clipPath>
</defs>
</svg>
