<svg width="19" height="22" viewBox="0 0 19 22" fill="none" xmlns="http://www.w3.org/2000/svg">
<g clip-path="url(#clip0_7935_57035)">
<g clip-path="url(#clip1_7935_57035)">
<path d="M9.45026 9.5803C12.0918 9.5803 14.2409 7.4313 14.2409 4.7906C14.2409 2.1499 12.0918 0 9.45026 0C6.80876 0 4.66016 2.149 4.66016 4.7905C4.66016 7.432 6.80876 9.5803 9.45026 9.5803Z" fill="currentColor"/>
<path d="M10.8862 10.9824H8.0175C3.5966 10.9824 0 14.579 0 19.0002C0 20.6527 1.3447 21.9978 2.9976 21.9978H15.906C17.5589 21.9978 18.9036 20.6527 18.9036 19.0002C18.9036 14.579 15.307 10.9824 10.8862 10.9824Z" fill="currentColor"/>
</g>
</g>
<defs>
<clipPath id="clip0_7935_57035">
<rect width="18.9055" height="22" fill="white"/>
</clipPath>
<clipPath id="clip1_7935_57035">
<rect width="18.9036" height="21.9979" fill="white"/>
</clipPath>
</defs>
</svg>
