<svg width="19" height="22" viewBox="0 0 19 22" fill="none" xmlns="http://www.w3.org/2000/svg">
<g clip-path="url(#clip0_7935_56758)">
<path d="M18.5112 15.658C17.8642 13.9029 17.4936 11.4545 17.1006 8.8623C16.9969 8.1756 16.892 7.4831 16.7804 6.794C16.0817 2.4765 13.3578 0 9.30706 0C5.25636 0 2.53256 2.4765 1.83346 6.794C1.72276 7.4806 1.61776 8.1715 1.51446 8.8549C1.12116 11.4504 0.750157 13.9012 0.102657 15.658C-0.0853427 16.1678 -0.0121427 16.738 0.297757 17.1826C0.608857 17.6288 1.12286 17.8957 1.67236 17.8957H4.32756C4.73756 20.221 6.80716 22.0001 9.30716 22.0001C11.8072 22.0001 13.8765 20.221 14.2864 17.8957H16.942C17.4915 17.8957 18.0055 17.6288 18.317 17.1818C18.6264 16.7381 18.6992 16.1678 18.5112 15.658ZM9.30716 20.3077C7.74866 20.3077 6.44646 19.2802 6.06076 17.8957H12.5532C12.1675 19.2802 10.8653 20.3077 9.30716 20.3077ZM5.18526 16.2339C5.15146 16.2298 5.12186 16.2141 5.08706 16.2141C5.05126 16.2141 5.02086 16.2302 4.98626 16.2344L1.69086 16.243C2.39736 14.3252 2.78116 11.7916 3.18776 9.1085C3.29026 8.4301 3.39396 7.7451 3.50426 7.065C4.06486 3.6002 6.12576 1.6923 9.30706 1.6923C12.4884 1.6923 14.5493 3.6003 15.1095 7.065C15.2203 7.7475 15.3243 8.435 15.4272 9.1151C15.8305 11.7767 16.2114 14.292 16.9084 16.2032L5.18526 16.2339Z" fill="currentColor"/>
</g>
<defs>
<clipPath id="clip0_7935_56758">
<rect width="18.6139" height="22" fill="white"/>
</clipPath>
</defs>
</svg>
