<svg width="19" height="22" viewBox="0 0 19 22" fill="none" xmlns="http://www.w3.org/2000/svg">
<g clip-path="url(#clip0_7935_57034)">
<g clip-path="url(#clip1_7935_57034)">
<path d="M18.5093 15.6556C17.8623 13.9015 17.4918 11.4533 17.0989 8.8606C16.9952 8.1749 16.8903 7.4824 16.7787 6.7933C16.0801 2.4762 13.3564 0 9.30617 0C5.25597 0 2.53217 2.4763 1.83317 6.7933C1.72247 7.4799 1.61797 8.1698 1.51427 8.854C1.12137 11.4492 0.749968 13.8999 0.102668 15.6556C-0.0853319 16.1662 -0.0122319 16.7371 0.298068 17.1809C0.609168 17.6279 1.12307 17.8939 1.67217 17.8939H4.32717C4.73717 20.2189 6.80647 21.9978 9.30627 21.9978C11.8061 21.9978 13.8751 20.2189 14.285 17.8939H16.9404C17.4898 17.8939 18.0033 17.6271 18.3149 17.1809C18.6247 16.7364 18.6972 16.1663 18.5093 15.6556ZM9.30607 20.3057C7.74777 20.3057 6.44567 19.2782 6.05987 17.8939H12.5518C12.1661 19.2782 10.8641 20.3057 9.30607 20.3057Z" fill="currentColor"/>
</g>
</g>
<defs>
<clipPath id="clip0_7935_57034">
<rect width="18.6139" height="22" fill="white"/>
</clipPath>
<clipPath id="clip1_7935_57034">
<rect width="18.612" height="21.9979" fill="white"/>
</clipPath>
</defs>
</svg>
