<svg width="18" height="22" viewBox="0 0 18 22" fill="none" xmlns="http://www.w3.org/2000/svg">
<g clip-path="url(#clip0_7935_57032)">
<g clip-path="url(#clip1_7935_57032)">
<path d="M17.7837 19.6874L14.3076 14.3223C15.4471 13.1889 16.2392 11.7518 16.5827 10.143C17.0508 7.95258 16.6381 5.71108 15.4202 3.83138C14.2024 1.95168 12.3251 0.658581 10.1352 0.190981C7.94281 -0.277519 5.70281 0.136382 3.82311 1.35428C-0.0569901 3.86758 -1.16839 9.06958 1.34551 12.9505C2.56341 14.8302 4.44021 16.1224 6.63051 16.5909C7.21921 16.7164 7.81171 16.7785 8.39951 16.7785C9.70131 16.7785 10.9757 16.4584 12.1482 15.8652L15.2661 21.3183C15.5532 21.7617 16.0347 22.0029 16.5264 22.0029C16.8057 22.0029 17.0884 21.9248 17.3404 21.7617C18.0357 21.3115 18.2343 20.3827 17.7837 19.6874ZM3.76751 11.3809C2.11831 8.83618 2.84751 5.42378 5.39261 3.77458C6.29431 3.19068 7.32251 2.88858 8.37221 2.88858C8.75791 2.88858 9.14661 2.92938 9.53251 3.01218C10.9691 3.31908 12.2001 4.16708 12.9989 5.40008C13.7977 6.63308 14.0686 8.10298 13.7617 9.53958C13.4548 10.9762 12.6064 12.2072 11.3735 13.0063C8.82881 14.6534 5.41631 13.9262 3.76751 11.3809Z" fill="currentColor"/>
</g>
</g>
<defs>
<clipPath id="clip0_7935_57032">
<rect width="17.507" height="21.9968" fill="white"/>
</clipPath>
<clipPath id="clip1_7935_57032">
<rect width="18.0251" height="22" fill="white" transform="translate(0 0.00292969)"/>
</clipPath>
</defs>
</svg>
