<svg width="18" height="22" viewBox="0 0 18 22" fill="none" xmlns="http://www.w3.org/2000/svg">
<g clip-path="url(#clip0_7935_56756)">
<path d="M17.3708 20.6903L13.6354 14.9255C16.9519 12.2692 17.7852 7.4649 15.4268 3.8234C12.9115 -0.0578034 7.70993 -1.1683 3.82863 1.3461C1.94913 2.5642 0.655933 4.4407 0.187933 6.6313C-0.280167 8.8219 0.133033 11.0637 1.35093 12.9436C2.95483 15.4185 5.65193 16.7678 8.40243 16.7678C9.69603 16.7678 10.9956 16.4501 12.2045 15.83L15.9504 21.6109C16.1123 21.8605 16.3842 21.9968 16.6615 21.9968C16.8193 21.9968 16.9788 21.953 17.1209 21.8604C17.513 21.6067 17.625 21.0828 17.3708 20.6903ZM6.99023 14.9301C5.24173 14.5558 3.74363 13.5237 2.77143 12.0231C1.79883 10.5225 1.46913 8.7335 1.84303 6.985C2.21653 5.2365 3.24863 3.7384 4.74923 2.7658C5.87133 2.0395 7.13153 1.6916 8.37843 1.6916C10.574 1.6916 12.7269 2.7683 14.0065 4.744C16.0132 7.841 15.1257 11.995 12.0283 14.0021C10.5281 14.9738 8.73953 15.3019 6.99023 14.9301Z" fill="currentColor"/>
</g>
<defs>
<clipPath id="clip0_7935_56756">
<rect width="17.507" height="21.9968" fill="white"/>
</clipPath>
</defs>
</svg>
