<svg width="22" height="22" viewBox="0 0 22 22" fill="none" xmlns="http://www.w3.org/2000/svg">
<g clip-path="url(#clip0_7935_56757)">
<path d="M20.2333 5.01472C16.9351 -0.0745845 10.1108 -1.53308 5.02236 1.76562C2.55656 3.36202 0.860564 5.82452 0.246564 8.69762C-0.367436 11.5708 0.174264 14.5108 1.77156 16.9765C3.87496 20.2223 7.41246 21.9915 11.0202 21.9915C13.0687 21.9915 15.1398 21.4214 16.9834 20.2265C22.0731 16.9286 23.5312 10.1049 20.2333 5.01472ZM16.0633 18.8069C11.7553 21.5966 5.98206 20.3629 3.19206 16.056C1.84016 13.9696 1.38196 11.4823 1.90136 9.05132C2.42106 6.62032 3.85606 4.53712 5.94246 3.18522C7.50206 2.17462 9.25476 1.69202 10.9884 1.69202C14.04 1.69202 17.0334 3.18852 18.8129 5.93522C21.6034 10.242 20.3697 16.0156 16.0633 18.8069Z" fill="currentColor"/>
<path d="M15.2334 10.1497H11.8488V6.76515C11.8488 6.29745 11.4699 5.91895 11.0026 5.91895C10.5353 5.91895 10.1565 6.29745 10.1565 6.76515V10.1497H6.77188C6.30458 10.1497 5.92578 10.5282 5.92578 10.9959C5.92578 11.4636 6.30458 11.842 6.77188 11.842H10.1565V15.2266C10.1565 15.6943 10.5353 16.0727 11.0026 16.0727C11.4699 16.0727 11.8488 15.6942 11.8488 15.2266V11.842H15.2334C15.7007 11.842 16.0796 11.4636 16.0796 10.9959C16.0796 10.5282 15.7007 10.1497 15.2334 10.1497Z" fill="currentColor"/>
</g>
<defs>
<clipPath id="clip0_7935_56757">
<rect width="21.9983" height="21.9915" fill="white"/>
</clipPath>
</defs>
</svg>
