<svg width="22" height="22" viewBox="0 0 22 22" fill="none" xmlns="http://www.w3.org/2000/svg">
<g clip-path="url(#clip0_7935_57033)">
<g clip-path="url(#clip1_7935_57033)">
<path d="M19.6727 5.64179C16.6241 0.936386 10.3383 -0.406714 5.63302 2.64189C0.927623 5.69039 -0.415477 11.9762 2.63302 16.6815C5.68162 21.3869 11.9674 22.73 16.6727 19.6814C21.378 16.6329 22.7213 10.3471 19.6727 5.64179ZM15.3831 12.008H11.9988V15.3923C11.9988 15.86 11.62 16.2384 11.1527 16.2384C10.6854 16.2384 10.3066 15.86 10.3066 15.3923V12.008H6.92232C6.45512 12.008 6.07622 11.6296 6.07622 11.1619C6.07622 10.6942 6.45502 10.3158 6.92232 10.3158H10.3066V6.93149C10.3066 6.46379 10.6854 6.08539 11.1527 6.08539C11.62 6.08539 11.9988 6.46379 11.9988 6.93149V10.3158H15.3831C15.8504 10.3158 16.2292 10.6942 16.2292 11.1619C16.2292 11.6296 15.8504 12.008 15.3831 12.008Z" fill="currentColor"/>
</g>
</g>
<defs>
<clipPath id="clip0_7935_57033">
<rect width="21.9983" height="21.9915" fill="white"/>
</clipPath>
<clipPath id="clip1_7935_57033">
<rect width="20.3057" height="20.3057" fill="white" transform="translate(1 1.00879)"/>
</clipPath>
</defs>
</svg>
