<svg width="20" height="17" viewBox="0 0 20 17" fill="none" xmlns="http://www.w3.org/2000/svg">
<path d="M16.6172 14.54V14.7939C16.6172 15.2313 16.3985 15.6325 16.043 15.8457C15.6875 16.0587 15.2533 16.0479 14.9082 15.8164L10.0957 12.6035L5.33008 15.8125C5.14893 15.9337 4.94383 15.9961 4.73535 15.9961L4.73926 16C4.55128 16 4.36621 15.9488 4.19531 15.8496C3.8398 15.6364 3.61719 15.235 3.61719 14.7939V4.27637L16.6172 14.54ZM14.0098 0C15.4486 0.000173625 16.617 1.27531 16.6172 2.84082V10.7168L4.27148 0.969727C4.75079 0.376452 5.45076 0 6.22949 0H14.0098Z" fill="#FFE100"/>
<path d="M20 15.389L18.7745 17L0 1.61103L1.22551 0L20 15.389Z" fill="#787878"/>
</svg>
