<svg width="177" height="77" viewBox="0 0 177 77" fill="none" xmlns="http://www.w3.org/2000/svg">
<g clip-path="url(#clip0_7935_57059)">
<path d="M80.7574 11.3696C67.4049 11.3696 57.5977 21.5393 57.5977 35.0875C57.5977 48.6357 68.6949 56.8054 81.2956 56.8054C93.8964 56.8054 103.986 46.3464 103.986 33.7939C103.986 21.2414 94.1099 11.3696 80.7574 11.3696ZM80.9454 46.9847H80.9368C73.7437 46.9847 68.823 40.8914 68.823 33.9726C68.823 27.0539 73.6925 21.1904 80.766 21.1904C87.8395 21.1904 92.7687 27.2836 92.7687 34.1428C92.7687 41.002 88.1385 46.9847 80.9454 46.9847Z" fill="#060001"/>
<path d="M139.277 11.5059H113.127C112.204 11.5059 111.461 12.2548 111.461 13.1653V19.999C111.461 20.9181 112.213 21.6585 113.127 21.6585H120.431V56.7714H132.032V21.6585H139.277C140.199 21.6585 140.942 20.9096 140.942 19.999V13.1653C140.942 12.2462 140.191 11.5059 139.277 11.5059Z" fill="#060001"/>
<path d="M177.001 21.6585V11.5059H154.944C153.192 11.5059 151.766 12.9271 151.766 14.6716V53.6057C151.766 55.3502 153.192 56.7714 154.944 56.7714H177.001V46.6188H162.88V38.849H176.566V28.6964H162.88V21.6585H177.001Z" fill="#060001"/>
<path d="M58.715 0.442506H58.7236L26.0214 38.1681C25.5772 38.6872 24.7656 38.6872 24.3214 38.1681L10.2513 21.6158L9.93517 21.2414C9.31154 20.5095 8.17534 20.4584 7.48337 21.1477L0.486744 28.1091C-0.1198 28.7133 -0.162515 29.6749 0.375687 30.3302L20.0499 54.1842C21.2972 55.8352 23.2364 56.8053 25.3038 56.8053H25.3892C27.4908 56.7798 29.4471 55.7501 30.6517 54.0395L60.7226 1.84668C61.4573 0.561649 59.6975 -0.689346 58.715 0.442506Z" fill="#060001"/>
<path d="M45.6783 74.6512C45.0974 74.3108 44.6531 73.8342 44.337 73.213C44.021 72.5917 43.8672 71.8428 43.8672 70.9663C43.8672 70.0898 44.021 69.3409 44.337 68.7196C44.6531 68.0984 45.0974 67.6218 45.6783 67.2814C46.2592 66.9495 46.9426 66.7793 47.7371 66.7793C48.3949 66.7793 48.9758 66.9069 49.4969 67.1623C50.0181 67.4176 50.4281 67.7665 50.7357 68.209C51.0432 68.6515 51.2312 69.1621 51.2824 69.7323V69.7919H49.6251L49.5995 69.6983C49.5397 69.4004 49.4201 69.1366 49.2577 68.9154C49.0954 68.6941 48.8819 68.5239 48.6256 68.3962C48.3693 68.2686 48.0703 68.209 47.7371 68.209C47.3014 68.209 46.9255 68.3196 46.6095 68.5409C46.2934 68.7622 46.0456 69.077 45.8662 69.4855C45.6954 69.894 45.6014 70.3791 45.6014 70.9408C45.6014 71.5109 45.6868 72.0045 45.8662 72.4215C46.0371 72.8385 46.2848 73.1534 46.6095 73.3747C46.9341 73.5959 47.31 73.7066 47.7371 73.7066C48.0617 73.7066 48.3522 73.647 48.6085 73.5279C48.8648 73.4087 49.0783 73.2385 49.2492 73.0087C49.4201 72.779 49.5397 72.5066 49.6166 72.1833V72.1237H51.291V72.1833C51.2312 72.7534 51.0518 73.264 50.7357 73.7066C50.4196 74.1491 50.0095 74.498 49.4969 74.7533C48.9844 75.0086 48.3949 75.1363 47.7371 75.1363C46.9426 75.1363 46.2592 74.9661 45.6783 74.6342V74.6512Z" fill="black"/>
<path d="M53.0007 69.0005H54.641V70.0472H54.6751C54.7691 69.6813 54.9314 69.392 55.1621 69.1877C55.4013 68.9835 55.6917 68.8813 56.042 68.8813C56.136 68.8813 56.2214 68.8813 56.2983 68.8984C56.3837 68.9069 56.4521 68.9239 56.5119 68.9409V70.3876C56.4435 70.3536 56.3581 70.3366 56.2556 70.3196C56.1531 70.3025 56.042 70.294 55.9139 70.294C55.6405 70.294 55.4098 70.3451 55.2219 70.4472C55.0339 70.5493 54.8802 70.7025 54.7862 70.9068C54.6922 71.111 54.6324 71.3578 54.6324 71.6472V75.0172H52.9922V69.0005H53.0007Z" fill="black"/>
<path d="M58.466 74.7619C58.0218 74.5066 57.68 74.1491 57.4408 73.6811C57.2016 73.213 57.082 72.6599 57.082 72.0216C57.082 71.3748 57.2016 70.8217 57.4408 70.3536C57.68 69.8855 58.0217 69.5196 58.4489 69.2643C58.8846 69.009 59.3972 68.8813 59.9866 68.8813C60.5761 68.8813 61.0886 69.009 61.5158 69.2558C61.9429 69.5026 62.2761 69.8515 62.5153 70.3111C62.746 70.7621 62.8656 71.2897 62.8656 71.9025V72.4131H57.8936V71.3748H62.0882L61.3022 72.345V71.7067C61.3022 71.3578 61.251 71.0599 61.1399 70.8217C61.0288 70.5834 60.8836 70.4047 60.6871 70.2855C60.4906 70.1664 60.2685 70.1068 60.0122 70.1068C59.756 70.1068 59.5338 70.1664 59.3374 70.294C59.1409 70.4217 58.9871 70.6004 58.876 70.8387C58.765 71.077 58.7137 71.3663 58.7137 71.7067V72.345C58.7137 72.6769 58.765 72.9577 58.876 73.196C58.9871 73.4343 59.1409 73.613 59.3544 73.7407C59.568 73.8683 59.8072 73.9279 60.0891 73.9279C60.3112 73.9279 60.5077 73.8938 60.6786 73.8258C60.8494 73.7577 60.9776 73.6641 61.0801 73.5534C61.1826 73.4428 61.2595 73.3322 61.2937 73.2215V73.1875H62.8143L62.7972 73.2471C62.7545 73.4683 62.6605 73.6896 62.5324 73.9109C62.4042 74.1321 62.2248 74.3364 62.0027 74.5236C61.7806 74.7108 61.5072 74.864 61.1826 74.9746C60.858 75.0853 60.4821 75.1448 60.055 75.1448C59.4399 75.1448 58.9102 75.0172 58.466 74.7704V74.7619Z" fill="black"/>
<path d="M64.7981 74.8807C64.4906 74.7276 64.2514 74.5063 64.0805 74.234C63.9097 73.9616 63.8242 73.6468 63.8242 73.2978C63.8242 72.7447 64.0292 72.3107 64.4393 71.9958C64.8494 71.6809 65.4303 71.5022 66.1735 71.4511L68.5228 71.3065V72.3277L66.4213 72.4724C66.1052 72.4894 65.866 72.566 65.7037 72.6936C65.5413 72.8213 65.4559 72.9915 65.4559 73.2042C65.4559 73.434 65.5413 73.6127 65.7122 73.7319C65.8831 73.851 66.1052 73.9191 66.3956 73.9191C66.6434 73.9191 66.8569 73.868 67.0534 73.7744C67.2499 73.6808 67.3951 73.5446 67.5062 73.383C67.6173 73.2127 67.6685 73.034 67.6685 72.8213V70.9916C67.6685 70.7278 67.5831 70.515 67.4122 70.3618C67.2414 70.2087 66.9936 70.1321 66.6775 70.1321C66.3615 70.1321 66.1223 70.1916 65.9429 70.3193C65.7635 70.4469 65.6524 70.6001 65.6097 70.7959V70.8469H64.089V70.7788C64.1318 70.4129 64.2514 70.081 64.4649 69.7917C64.6785 69.5023 64.9775 69.281 65.3619 69.1194C65.7464 68.9577 66.2077 68.8726 66.7288 68.8726C67.2499 68.8726 67.7027 68.9577 68.0871 69.1194C68.4715 69.281 68.7705 69.5193 68.9756 69.8257C69.1891 70.1321 69.2917 70.481 69.2917 70.8895V75.0084H67.6514V74.1148H67.6173C67.4977 74.3191 67.3524 74.4893 67.1816 74.6425C67.0107 74.7956 66.8057 74.9063 66.575 74.9829C66.3444 75.0595 66.1052 75.102 65.8403 75.102C65.4388 75.102 65.0886 75.0254 64.781 74.8722L64.7981 74.8807Z" fill="black"/>
<path d="M71.4023 74.7194C71.0776 74.4386 70.9153 73.979 70.9153 73.3323V70.2346H70.0781V69.0006H70.9153V67.5283H72.5726V69.0006H73.6747V70.2346H72.5726V73.1535C72.5726 73.4344 72.6324 73.6301 72.7606 73.7407C72.8887 73.8514 73.0767 73.9024 73.3244 73.9024C73.4013 73.9024 73.4611 73.9024 73.5209 73.9024C73.5807 73.9024 73.632 73.8939 73.6747 73.8854V75.0854C73.5807 75.1024 73.4696 75.1109 73.3415 75.1279C73.2048 75.1449 73.051 75.1449 72.8802 75.1449C72.2138 75.1449 71.7184 75.0088 71.3937 74.7279L71.4023 74.7194Z" fill="black"/>
<path d="M76.091 74.7619C75.6468 74.5066 75.305 74.1491 75.0658 73.6811C74.8266 73.213 74.707 72.6599 74.707 72.0216C74.707 71.3748 74.8266 70.8217 75.0658 70.3536C75.305 69.8855 75.6468 69.5196 76.0739 69.2643C76.5096 69.009 77.0222 68.8813 77.6116 68.8813C78.2011 68.8813 78.7136 69.009 79.1408 69.2558C79.5679 69.5026 79.9011 69.8515 80.1403 70.3111C80.371 70.7621 80.4906 71.2897 80.4906 71.9025V72.4131H75.5186V71.3748H79.7132L78.9272 72.345V71.7067C78.9272 71.3578 78.876 71.0599 78.7649 70.8217C78.6538 70.5834 78.5086 70.4047 78.3121 70.2855C78.1156 70.1664 77.8935 70.1068 77.6372 70.1068C77.381 70.1068 77.1588 70.1664 76.9624 70.294C76.7659 70.4217 76.6121 70.6004 76.501 70.8387C76.39 71.077 76.3387 71.3663 76.3387 71.7067V72.345C76.3387 72.6769 76.39 72.9577 76.501 73.196C76.6121 73.4343 76.7659 73.613 76.9794 73.7407C77.193 73.8683 77.4322 73.9279 77.7141 73.9279C77.9362 73.9279 78.1327 73.8938 78.3036 73.8258C78.4744 73.7577 78.6026 73.6641 78.7051 73.5534C78.8076 73.4428 78.8845 73.3322 78.9187 73.2215V73.1875H80.4393L80.4222 73.2471C80.3795 73.4683 80.2855 73.6896 80.1574 73.9109C80.0293 74.1321 79.8498 74.3364 79.6277 74.5236C79.4056 74.7108 79.1322 74.864 78.8076 74.9746C78.483 75.0853 78.1071 75.1448 77.68 75.1448C77.0649 75.1448 76.5352 75.0172 76.091 74.7704V74.7619Z" fill="black"/>
<path d="M84.3086 69.0005H85.9488V70.0132H85.983C86.1111 69.6728 86.3162 69.392 86.6152 69.1877C86.9142 68.9835 87.2644 68.8813 87.6745 68.8813C87.9564 68.8813 88.2127 68.9324 88.4348 69.026C88.6569 69.1196 88.8534 69.2643 89.0072 69.443C89.161 69.6302 89.272 69.8515 89.3404 70.1153H89.3745C89.4685 69.86 89.5966 69.6388 89.7846 69.46C89.964 69.2728 90.1861 69.1281 90.4338 69.0345C90.6816 68.9324 90.955 68.8813 91.254 68.8813C91.6469 68.8813 91.9972 68.9664 92.2876 69.1366C92.5866 69.3069 92.8173 69.5366 92.9796 69.843C93.1419 70.1494 93.2274 70.4983 93.2274 70.9068V75.0172H91.5871V71.3238C91.5871 70.9748 91.5017 70.711 91.3308 70.5238C91.16 70.3366 90.9208 70.243 90.5962 70.243C90.3911 70.243 90.2117 70.294 90.0494 70.3876C89.8956 70.4813 89.776 70.6174 89.6821 70.7791C89.5966 70.9493 89.5539 71.1451 89.5539 71.3663V75.0172H87.9735V71.2727C87.9735 70.9493 87.8881 70.694 87.7172 70.5153C87.5463 70.3366 87.3071 70.243 86.9996 70.243C86.7946 70.243 86.6066 70.294 86.4529 70.3876C86.2991 70.4898 86.1709 70.6259 86.0855 70.7961C86.0001 70.9663 85.9574 71.1621 85.9574 71.3918V75.0172H84.3171V69.0005H84.3086Z" fill="black"/>
<path d="M95.0825 76.9742C94.9288 76.9572 94.8092 76.9402 94.7066 76.9232V75.7062C94.7664 75.7147 94.8348 75.7318 94.9373 75.7403C95.0313 75.7573 95.1423 75.7573 95.2619 75.7573C95.5097 75.7573 95.7062 75.7147 95.8514 75.6296C95.9966 75.5445 96.0991 75.4084 96.176 75.2041L96.2444 75.0084L94.1172 68.9917H95.9283L97.2951 74.0212L97.073 73.6978H97.3806L97.1585 74.0212L98.5168 68.9917H100.26L98.1836 75.1105C98.0298 75.5786 97.8248 75.953 97.5856 76.2339C97.3464 76.5062 97.0645 76.7019 96.7313 76.8211C96.3981 76.9317 96.0052 76.9913 95.5609 76.9913C95.3986 76.9913 95.2448 76.9913 95.0911 76.9657L95.0825 76.9742Z" fill="black"/>
<path d="M103.422 66.9238H105.301L107.164 73.2809H107.198L109.052 66.9238H110.94L108.223 75.017H106.147L103.43 66.9238H103.422Z" fill="black"/>
<path d="M113.45 74.6512C112.861 74.3108 112.408 73.8342 112.092 73.2045C111.776 72.5747 111.613 71.8343 111.613 70.9748C111.613 70.1068 111.776 69.3579 112.092 68.7366C112.408 68.1154 112.869 67.6303 113.459 67.2899C114.048 66.9495 114.74 66.7793 115.543 66.7793C116.346 66.7793 117.038 66.9495 117.627 67.2899C118.217 67.6303 118.661 68.1154 118.986 68.7366C119.31 69.3579 119.464 70.0983 119.464 70.9578C119.464 71.8258 119.302 72.5747 118.986 73.196C118.67 73.8172 118.217 74.3023 117.627 74.6427C117.047 74.9831 116.346 75.1533 115.543 75.1533C114.74 75.1533 114.048 74.9831 113.459 74.6427L113.45 74.6512ZM116.696 73.3832C117.021 73.1534 117.269 72.8385 117.448 72.43C117.627 72.0216 117.713 71.5365 117.713 70.9748C117.713 70.4046 117.627 69.9195 117.448 69.5025C117.269 69.0941 117.021 68.7707 116.688 68.5494C116.363 68.3281 115.979 68.2175 115.534 68.2175C115.09 68.2175 114.706 68.3281 114.381 68.5494C114.057 68.7707 113.8 69.0856 113.621 69.494C113.441 69.9025 113.356 70.3876 113.356 70.9578C113.356 71.528 113.441 72.013 113.621 72.43C113.8 72.847 114.048 73.1619 114.381 73.3832C114.714 73.6045 115.09 73.7236 115.543 73.7236C115.996 73.7236 116.38 73.613 116.705 73.3832H116.696Z" fill="black"/>
<path d="M122.608 68.3195H120.25V66.9238H126.657V68.3195H124.299V75.017H122.599V68.3195H122.608Z" fill="black"/>
<path d="M127.945 66.9238H133.327V68.3195H129.645V70.2598H133.122V71.5874H129.645V73.6213H133.327V75.017H127.945V66.9238Z" fill="black"/>
</g>
<defs>
<clipPath id="clip0_7935_57059">
<rect width="177" height="77" fill="white"/>
</clipPath>
</defs>
</svg>
