<svg width="200" height="64" viewBox="0 0 200 64" fill="none" xmlns="http://www.w3.org/2000/svg">
<path d="M91.2494 12.8092C76.1617 12.8092 65.0801 24.267 65.0801 39.5312C65.0801 54.7954 77.6194 64 91.8575 64C106.096 64 117.496 52.2162 117.496 38.0738C117.496 23.9314 106.337 12.8092 91.2494 12.8092ZM91.4617 52.9354H91.4521C83.3243 52.9354 77.7641 46.0703 77.7641 38.2752C77.7641 30.4801 83.2663 23.8739 91.259 23.8739C99.2517 23.8739 104.821 30.7389 104.821 38.4669C104.821 46.1949 99.5895 52.9354 91.4617 52.9354Z" fill="#060001"/>
<path d="M157.372 12.9625H127.825C126.782 12.9625 125.942 13.8062 125.942 14.8322V22.5314C125.942 23.5669 126.792 24.4011 127.825 24.4011H136.078V63.9615H149.187V24.4011H157.372C158.415 24.4011 159.255 23.5573 159.255 22.5314V14.8322C159.255 13.7966 158.405 12.9625 157.372 12.9625Z" fill="#060001"/>
<path d="M200 24.4011V12.9625H175.076C173.097 12.9625 171.485 14.5637 171.485 16.5293V60.3947C171.485 62.3603 173.097 63.9615 175.076 63.9615H200V52.5229H184.044V43.769H199.508V32.3304H184.044V24.4011H200Z" fill="#060001"/>
<path d="M66.3447 0.498005H66.3544L29.4028 43.002C28.9008 43.5869 27.9838 43.5869 27.4818 43.002L11.5834 24.3532L11.2262 23.9313C10.5215 23.1067 9.23768 23.0492 8.45579 23.8258L0.549994 31.6689C-0.135368 32.3496 -0.183633 33.4331 0.424505 34.1714L22.6553 61.0468C24.0647 62.9068 26.2559 63.9999 28.5919 63.9999H28.6884C31.0631 63.9711 33.2736 62.811 34.6347 60.8838L68.6132 2.08004C69.4433 0.632238 67.4548 -0.77721 66.3447 0.498005Z" fill="#060001"/>
</svg>
